<svg width="24" height="24" xmlns="http://www.w3.org/2000/svg">

 <g>
  <title>background</title>
  <rect fill="none" id="canvas_background" height="402" width="582" y="-1" x="-1"/>
 </g>
 <g>
  <title>Layer 1</title>
  <path fill="#5290f2" id="svg_1" d="m19,3l-14,0c-1.1,0 -2,0.9 -2,2l0,14c0,1.1 0.9,2 2,2l14,0c1.1,0 2,-0.9 2,-2l0,-14c0,-1.1 -0.9,-2 -2,-2zm-10,14l-2,0l0,-7l2,0l0,7zm4,0l-2,0l0,-10l2,0l0,10zm4,0l-2,0l0,-4l2,0l0,4z"/>
  <path id="svg_2" fill="none" d="m2.812495,23.062464l24,0l0,24l-24,0l0,-24z"/>
 </g>
</svg>