<svg width="24" height="24" xmlns="http://www.w3.org/2000/svg">

 <g>
  <title>background</title>
  <rect fill="none" id="canvas_background" height="402" width="582" y="-1" x="-1"/>
 </g>
 <g>
  <title>Layer 1</title>
  <path fill="#5290f2" id="svg_1" d="m20.5,3l-0.16,0.03l-5.34,2.07l-6,-2.1l-5.64,1.9c-0.21,0.07 -0.36,0.25 -0.36,0.48l0,15.12c0,0.28 0.22,0.5 0.5,0.5l0.16,-0.03l5.34,-2.07l6,2.1l5.64,-1.9c0.21,-0.07 0.36,-0.25 0.36,-0.48l0,-15.12c0,-0.28 -0.22,-0.5 -0.5,-0.5zm-5.5,16l-6,-2.11l0,-11.89l6,2.11l0,11.89z"/>
  <path id="svg_2" fill="none" d="m0.125,0.0625l24,0l0,24l-24,0l0,-24z"/>
  <path id="svg_4" d="m8.312575,10.187537c4.499907,1.43747 3.749923,1.249974 3.749677,1.249727c0.000246,0.000247 -11.687013,6.437614 -11.687259,6.437368" opacity="0.5" fill-opacity="null" stroke-opacity="null" stroke-width="null" stroke="null" fill="none"/>
 </g>
</svg>