<svg viewBox="0 0 128 128" xmlns="http://www.w3.org/2000/svg">

 <g>
  <title>background</title>
  <rect fill="none" id="canvas_background" height="402" width="582" y="-1" x="-1"/>
 </g>
 <g>
  <title>Layer 1</title>
  <path stroke="null" id="svg_1" d="m78.996223,40.578766l-31.321233,-18.193633c-1.97529,-1.125511 -4.547215,-1.125511 -6.538131,0l-31.655775,18.193633c-2.038505,1.173118 -3.481084,3.377955 -3.481084,5.73627l0,36.338949c0,2.358315 1.480224,4.563863 3.518729,5.743376l8.363551,4.752158c3.997458,1.969645 5.410205,1.969645 7.229233,1.969645c5.918766,0 9.299701,-3.580462 9.299701,-9.825486l0,-35.87567c0,-0.506622 -0.263514,-1.260516 -0.76071,-1.260516l-3.993906,0c-0.50572,0 -1.637907,0.753894 -1.637907,1.259805l0,35.87567c0,2.768303 -2.503028,5.523105 -7.180934,3.183264l-8.641981,-4.983087c-0.301159,-0.163427 -0.513533,-0.492411 -0.513533,-0.83916l0,-36.338949c0,-0.342485 0.394206,-0.686391 0.697495,-0.861897l31.553495,-18.162369c0.294766,-0.166979 0.728037,-0.166979 1.022093,0l31.168523,18.158106c0.298318,0.179769 0.193196,0.513017 0.193196,0.86616l0,36.338949c0,0.346748 0.129981,0.68426 -0.164785,0.851239l-31.31342,18.173027c-0.268486,0.161295 -0.601607,0.161295 -0.895664,0l-8.03114,-4.795502c-0.242206,-0.140689 -0.529869,-0.191138 -0.762131,-0.061107c-2.234542,1.266911 -2.646505,1.435311 -4.742542,2.162204c-0.515664,0.179769 -1.276374,0.491701 0.291215,1.370651l10.510729,6.220155c1.006467,0.582651 2.150019,0.885345 3.300673,0.885345c1.16628,0 2.308411,-0.302694 3.314878,-0.885345l31.170654,-18.17729c2.038505,-1.18804 3.004486,-3.38506 3.004486,-5.743376l0,-36.338949c0,-2.358315 -0.965981,-4.557468 -3.003776,-5.73627zm-24.761084,36.316922c-8.328747,0 -10.163402,-2.298629 -10.774953,-6.441846c-0.071028,-0.446225 -0.449607,-0.979848 -0.903477,-0.979848l-4.070617,0c-0.503589,0 -0.908449,0.611073 -0.908449,1.112721c0,5.304966 2.883028,11.732602 16.658205,11.732602c9.971626,0 15.688673,-3.87605 15.688673,-10.7357c0,-6.801385 -4.593383,-8.586286 -14.26385,-9.866697c-9.774878,-1.29249 -10.76785,-1.945486 -10.76785,-4.236299c0,-1.888642 0.840972,-4.407542 8.078729,-4.407542c6.467103,0 8.850804,1.388415 9.831701,5.74906c0.083813,0.409987 0.458131,0.704155 0.880748,0.704155l4.086953,0c0.251439,0 0.491514,-0.101609 0.667664,-0.281378c0.170467,-0.19327 0.260673,-0.435567 0.237944,-0.695628c-0.63286,-7.509093 -5.619738,-11.008551 -15.705719,-11.008551c-8.971551,0 -14.323514,3.790074 -14.323514,10.143101c0,6.890914 5.324972,8.795188 13.937121,9.647137c10.302617,1.010402 11.103813,2.516768 11.103813,4.543967c0,3.520775 -2.825495,5.020746 -9.453121,5.020746z" fill="#FFFFFF"/>
  <text stroke="null" transform="matrix(2.9440738733590046,0,0,3.240689444251181,-175.32700616994777,-130.17783189485388) " xml:space="preserve" text-anchor="start" font-family="Helvetica, Arial, sans-serif" font-size="24" id="svg_2" y="67.819053" x="86.68979" stroke-opacity="null" stroke-width="0" fill="#FFFFFF">+</text>
 </g>
</svg>
